<?xml version="1.0" encoding="utf-8"?>
<!-- Generator: Adobe Illustrator 16.0.0, SVG Export Plug-In . SVG Version: 6.00 Build 0)  -->
<!DOCTYPE svg PUBLIC "-//W3C//DTD SVG 1.1//EN" "http://www.w3.org/Graphics/SVG/1.1/DTD/svg11.dtd">
<svg version="1.1" xmlns="http://www.w3.org/2000/svg" xmlns:xlink="http://www.w3.org/1999/xlink" x="0px" y="0px" width="3000px"
	 height="1000px" viewBox="0 0 3000 1000" enable-background="new 0 0 3000 1000" xml:space="preserve">
<g id="Layer_1">
	<path fill="#E74C3C" stroke="#E74C3C" stroke-miterlimit="10" d="M2002.288,832.083c0,91.667-75,166.667-166.666,166.667h-666.667
		c-91.667,0-166.667-75-166.667-166.667V165.417c0-91.667,75-166.667,166.667-166.667h666.667c91.666,0,166.666,75,166.666,166.667
		V832.083z"/>
</g>
<g id="Layer_2">
	<g>
		<g>
			<g>
				<polygon fill="#050505" stroke="#000000" stroke-miterlimit="10" points="1171.636,447.88 1197.071,447.88 1197.071,384.293 
					1286.093,384.293 1286.093,333.424 1362.397,333.424 1362.397,231.685 1413.267,231.685 1413.267,206.25 1336.961,206.25 
					1336.961,307.989 1286.093,307.989 1286.093,231.685 1298.81,231.685 1298.81,282.555 1311.527,282.555 1311.527,206.25 
					1260.658,206.25 1260.658,358.859 1197.071,358.859 1197.071,231.685 1222.506,231.685 1222.506,333.424 1235.223,333.424 
					1235.223,206.25 1171.636,206.25 				"/>
			</g>
			<g>
				<polygon fill="#050505" stroke="#000000" stroke-miterlimit="10" points="1832.94,549.619 1807.505,549.619 1807.505,613.206 
					1718.484,613.206 1718.484,664.076 1642.179,664.076 1642.179,765.815 1591.31,765.815 1591.31,791.25 1667.613,791.25 
					1667.613,689.51 1718.484,689.51 1718.484,765.815 1705.767,765.815 1705.767,714.946 1693.049,714.946 1693.049,791.25 
					1743.918,791.25 1743.918,638.642 1807.505,638.642 1807.505,765.815 1782.071,765.815 1782.071,664.076 1769.354,664.076 
					1769.354,791.25 1832.94,791.25 				"/>
			</g>
			<g>
				<polygon fill="#050505" stroke="#000000" stroke-miterlimit="10" points="1832.94,447.88 1807.505,447.88 1807.505,384.293 
					1718.484,384.293 1718.484,333.424 1642.179,333.424 1642.179,231.685 1591.31,231.685 1591.31,206.25 1667.613,206.25 
					1667.613,307.989 1718.484,307.989 1718.484,231.685 1705.767,231.685 1705.767,282.555 1693.049,282.555 1693.049,206.25 
					1743.918,206.25 1743.918,358.859 1807.505,358.859 1807.505,231.685 1782.071,231.685 1782.071,333.424 1769.354,333.424 
					1769.354,206.25 1832.94,206.25 				"/>
			</g>
			<g>
				<polygon fill="#050505" stroke="#000000" stroke-miterlimit="10" points="1171.636,549.619 1197.071,549.619 1197.071,613.206 
					1286.093,613.206 1286.093,664.076 1362.397,664.076 1362.397,765.815 1413.267,765.815 1413.267,791.25 1336.961,791.25 
					1336.961,689.51 1286.093,689.51 1286.093,765.815 1298.81,765.815 1298.81,714.946 1311.527,714.946 1311.527,791.25 
					1260.658,791.25 1260.658,638.642 1197.071,638.642 1197.071,765.815 1222.506,765.815 1222.506,664.076 1235.223,664.076 
					1235.223,791.25 1171.636,791.25 				"/>
			</g>
			<polygon stroke="#000000" stroke-miterlimit="10" points="1184.177,486.033 1184.177,511.468 1222.506,511.468 1222.506,575.054 
				1311.527,575.054 1311.527,625.924 1387.831,625.924 1387.831,714.946 1438.701,714.946 1438.701,778.532 1565.876,778.532 
				1565.876,714.946 1616.745,714.946 1616.745,625.924 1693.049,625.924 1693.049,575.054 1782.071,575.054 1782.071,511.468 
				1820.047,511.468 1820.047,486.033 1782.071,486.033 1782.071,422.445 1693.049,422.445 1693.049,371.576 1616.745,371.576 
				1616.745,282.555 1565.876,282.555 1565.876,218.968 1438.701,218.968 1438.701,282.555 1387.831,282.555 1387.831,371.576 
				1311.527,371.576 1311.527,422.445 1222.506,422.445 1222.506,486.033 			"/>
			<polygon fill="#FFFFFF" stroke="#FFFFFF" stroke-miterlimit="10" points="1247.94,460.598 1273.375,460.598 1273.375,435.163 
				1247.94,435.163 1235.223,435.163 1235.223,562.337 1273.375,562.337 1273.375,536.901 1247.94,536.901 1247.94,511.468 
				1273.375,511.468 1362.397,511.468 1362.397,486.033 1247.94,486.033 			"/>
			<g>
				<polygon fill="#FFFFFF" stroke="#FFFFFF" stroke-miterlimit="10" points="1324.245,536.901 1324.245,613.206 1362.397,613.206 
					1362.397,587.772 1336.961,587.772 1336.961,562.337 1349.679,562.337 1349.679,536.901 				"/>
			</g>
			<g>
				<polygon fill="#FFFFFF" stroke="#FFFFFF" stroke-miterlimit="10" points="1680.332,536.901 1680.332,613.206 1642.179,613.206 
					1642.179,587.772 1667.613,587.772 1667.613,562.337 1654.896,562.337 1654.896,536.901 				"/>
			</g>
			<polygon fill="#FFFFFF" stroke="#FFFFFF" stroke-miterlimit="10" points="1756.636,460.598 1731.201,460.598 1731.201,435.163 
				1756.636,435.163 1769.354,435.163 1769.354,562.337 1731.201,562.337 1731.201,536.901 1756.636,536.901 1756.636,511.468 
				1731.201,511.468 1642.179,511.468 1642.179,486.033 1756.636,486.033 			"/>
			<g>
				<polygon fill="#FFFFFF" stroke="#FFFFFF" stroke-miterlimit="10" points="1324.245,460.598 1324.245,384.293 1362.397,384.293 
					1362.397,409.729 1336.961,409.729 1336.961,435.163 1349.679,435.163 1349.679,460.598 				"/>
			</g>
			<g>
				<polygon fill="#FFFFFF" stroke="#FFFFFF" stroke-miterlimit="10" points="1680.332,460.598 1680.332,384.293 1642.179,384.293 
					1642.179,409.729 1667.613,409.729 1667.613,435.163 1654.896,435.163 1654.896,460.598 				"/>
			</g>
			<g>
				<polygon fill="#FFFFFF" stroke="#FFFFFF" stroke-miterlimit="10" points="1567.288,689.51 1592.723,689.51 1592.723,651.358 
					1580.007,651.358 1580.007,625.924 1605.44,625.924 1605.44,702.228 1516.418,702.228 1516.418,753.099 1541.854,753.099 
					1541.854,740.38 1529.136,740.38 1529.136,714.946 1554.571,714.946 1554.571,765.815 1452.831,765.815 1452.831,714.946 
					1478.267,714.946 1478.267,740.38 1465.549,740.38 1465.549,753.099 1490.984,753.099 1490.984,702.228 1401.962,702.228 
					1401.962,625.924 1427.396,625.924 1427.396,651.358 1414.679,651.358 1414.679,689.51 1440.114,689.51 1451.418,689.51 
					1489.571,689.51 				"/>
			</g>
			<g>
				<polygon fill="#FFFFFF" stroke="#FFFFFF" stroke-miterlimit="10" points="1565.876,307.989 1591.31,307.989 1591.31,346.141 
					1578.594,346.141 1578.594,371.576 1604.027,371.576 1604.027,295.271 1515.006,295.271 1515.006,244.402 1540.44,244.402 
					1540.44,257.12 1527.723,257.12 1527.723,282.555 1553.158,282.555 1553.158,231.685 1451.418,231.685 1451.418,282.555 
					1476.854,282.555 1476.854,257.12 1464.136,257.12 1464.136,244.402 1489.571,244.402 1489.571,295.271 1400.549,295.271 
					1400.549,371.576 1425.984,371.576 1425.984,346.141 1413.267,346.141 1413.267,307.989 1438.701,307.989 1450.005,307.989 
					1488.158,307.989 				"/>
			</g>
			<g>
				<rect x="1400.549" y="460.598" fill="#FFFFFF" stroke="#000000" stroke-miterlimit="10" width="63.587" height="76.304"/>
			</g>
			<g>
				<rect x="1540.44" y="460.598" fill="#FFFFFF" stroke="#000000" stroke-miterlimit="10" width="63.587" height="76.304"/>
			</g>
			<g>
				<rect x="1476.854" y="371.576" fill="#FFFFFF" stroke="#000000" stroke-miterlimit="10" width="50.869" height="76.304"/>
			</g>
			<g>
				<rect x="1476.854" y="549.619" fill="#FFFFFF" stroke="#000000" stroke-miterlimit="10" width="50.869" height="76.305"/>
			</g>
			<g>
				<rect x="1418.918" y="486.033" stroke="#000000" stroke-miterlimit="10" width="26.142" height="25.435"/>
			</g>
			<g>
				<rect x="1560.223" y="486.033" fill="#000105" stroke="#000000" stroke-miterlimit="10" width="26.142" height="25.435"/>
			</g>
			<g>
				<rect x="1489.571" y="397.011" fill="#000105" stroke="#000000" stroke-miterlimit="10" width="25.435" height="25.434"/>
			</g>
			<g>
				<rect x="1489.571" y="575.054" fill="#000105" stroke="#000000" stroke-miterlimit="10" width="25.435" height="25.437"/>
			</g>
			<path fill="#FCFCFC" stroke="#FFFFFF" stroke-miterlimit="10" d="M1565.876,384.207v-76.304h-127.175v76.304h-76.304v228.913
				h76.304v76.391l127.175-0.086v-76.305h76.303V384.207H1565.876z M1629.463,587.772h-89.022v76.304h-76.305v-76.304h-89.021
				V409.729h89.021v-76.304h76.305v76.304h89.022V587.772z"/>
			<g>
				<rect x="1400.549" y="460.598" stroke="#000000" stroke-miterlimit="10" width="63.587" height="76.304"/>
			</g>
			<g>
				<rect x="1540.44" y="460.598" stroke="#000000" stroke-miterlimit="10" width="63.587" height="76.304"/>
			</g>
			<g>
				<rect x="1476.854" y="371.576" stroke="#000000" stroke-miterlimit="10" width="50.869" height="76.304"/>
			</g>
			<g>
				<rect x="1476.854" y="549.619" stroke="#000000" stroke-miterlimit="10" width="50.869" height="76.305"/>
			</g>
		</g>
		<g>
			<path fill="#FFFFFF" d="M1571.09,459.146l-12.53-12.524c-1.717-1.717-3.804-2.578-6.259-2.578c-2.458,0-4.55,0.861-6.267,2.578
				l-60.418,60.512l-27.074-27.173c-1.723-1.717-3.81-2.577-6.266-2.577c-2.457,0-4.542,0.86-6.265,2.577l-12.524,12.524
				c-1.716,1.722-2.578,3.809-2.578,6.265c0,2.457,0.861,4.548,2.578,6.264l33.338,33.341l12.531,12.522
				c1.716,1.724,3.802,2.578,6.259,2.578c2.455,0,4.543-0.854,6.264-2.578l12.525-12.522l66.685-66.679
				c1.716-1.721,2.577-3.808,2.577-6.264S1572.806,460.868,1571.09,459.146L1571.09,459.146z M1571.09,459.146"/>
		</g>
	</g>
</g>
</svg>
