<?xml version="1.0" standalone="no"?>
<!DOCTYPE svg PUBLIC "-//W3C//DTD SVG 20010904//EN"
 "http://www.w3.org/TR/2001/REC-SVG-20010904/DTD/svg10.dtd">
<svg version="1.0" xmlns="http://www.w3.org/2000/svg"
 width="4165.000000pt" height="4165.000000pt" viewBox="0 0 4165.000000 4165.000000"
 preserveAspectRatio="xMidYMid meet">
<metadata>
Created by potrace 1.11, written by Peter Selinger 2001-2013
</metadata>
<g transform="translate(0.000000,4165.000000) scale(0.100000,-0.100000)"
fill="#000000" stroke="none">
<path d="M20000 39705 l0 -1205 -2010 0 -2010 0 0 -2810 0 -2810 -1605 0
-1605 0 0 -2410 0 -2410 -2805 0 -2805 0 0 -1605 0 -1605 -2010 0 -2010 0 0
-4035 0 -4035 2010 0 2010 0 0 -1605 0 -1605 2805 0 2805 0 0 -2410 0 -2410
1605 0 1605 0 0 -2805 0 -2805 2010 0 2010 0 0 -1200 0 -1200 825 0 825 0 0
1200 0 1200 2005 0 2005 0 0 2805 0 2805 1605 0 1605 0 0 2410 0 2410 2810 0
2810 0 0 1605 0 1605 2005 0 2005 0 0 4035 0 4035 -2005 0 -2005 0 0 1605 0
1605 -2810 0 -2810 0 0 2410 0 2410 -1605 0 -1605 0 0 2810 0 2810 -2005 0
-2005 0 0 1205 0 1205 -825 0 -825 0 0 -1205z m4850 -3240 l0 -1225 -820 0
-820 0 0 805 0 805 -785 0 -785 0 0 -3595 0 -3595 2390 0 2390 0 0 785 0 785
-785 0 -785 0 0 -400 0 -400 -820 0 -820 0 0 820 0 820 2423 0 2424 0 6 -1807
c4 -995 7 -2619 7 -3610 l0 -1803 2385 0 2385 0 0 785 0 785 -1185 0 -1185 0
0 -405 0 -405 -820 0 -820 0 0 820 0 820 2425 0 2425 0 0 -2805 0 -2805 1585
0 1585 0 0 785 0 785 -380 0 -380 0 0 -405 0 -405 -820 0 -820 0 0 820 0 820
1620 0 1620 0 0 -3225 0 -3225 -1620 0 -1620 0 0 820 0 820 820 0 820 0 0
-400 0 -400 380 0 380 0 0 785 0 785 -1585 0 -1585 0 0 -2810 0 -2810 -2425 0
-2425 0 0 820 0 820 820 0 820 0 0 -400 0 -400 1185 0 1185 0 0 785 0 785
-2385 0 -2385 0 0 -1807 c0 -995 -3 -2621 -7 -3615 l-6 -1808 -2424 0 -2423 0
0 820 0 820 820 0 820 0 0 -400 0 -400 785 0 785 0 0 785 0 785 -2390 0 -2390
0 0 -3595 0 -3595 785 0 785 0 0 805 0 805 820 0 820 0 0 -1220 0 -1220 -4030
0 -4030 0 0 1220 0 1220 820 0 820 0 0 -805 0 -805 785 0 785 0 0 3595 0 3595
-2390 0 -2390 0 0 -785 0 -785 785 0 785 0 0 400 0 400 820 0 820 0 0 -820 0
-820 -2425 0 -2425 0 7 3615 6 3615 -2396 0 -2397 0 0 -830 0 -830 1190 0
1190 0 0 400 0 400 820 0 820 0 0 -820 0 -820 -2425 0 -2425 0 0 2810 0 2810
-1590 0 -1590 0 0 -785 0 -785 385 0 385 0 0 400 0 400 820 0 820 0 0 -820 0
-820 -1625 0 -1625 0 0 3225 0 3225 1625 0 1625 0 0 -820 0 -820 -820 0 -820
0 0 405 0 405 -385 0 -385 0 0 -785 0 -785 1590 0 1590 0 0 2805 0 2805 2425
0 2425 0 0 -820 0 -820 -820 0 -820 0 0 405 0 405 -1190 0 -1190 0 0 -740 0
-740 2397 0 2396 0 -6 3610 -7 3610 2425 0 2425 0 0 -820 0 -820 -820 0 -820
0 0 400 0 400 -785 0 -785 0 0 -785 0 -785 2390 0 2390 0 0 3595 0 3595 -785
0 -785 0 0 -805 0 -805 -820 0 -820 0 0 1225 0 1225 4030 0 4030 0 0 -1225z"/>
<path d="M15220 26015 l0 -2805 -2405 0 -2405 0 0 -2390 0 -2390 2405 0 2405
0 0 -2810 0 -2810 5600 0 5600 0 0 2810 0 2810 2410 0 2410 0 0 2390 0 2390
-2410 0 -2410 0 0 2805 0 2805 -5600 0 -5600 0 0 -2805z m8895 -1790 c135 -36
147 -46 636 -534 489 -490 498 -500 533 -637 20 -78 20 -193 1 -269 -39 -147
133 32 -2639 -2741 -2787 -2787 -2596 -2603 -2747 -2639 -123 -29 -243 -16
-359 37 -61 28 -157 122 -1582 1546 -1578 1576 -1557 1555 -1589 1665 -41 138
-30 269 32 397 41 83 51 94 468 514 249 250 454 448 494 477 98 69 178 94 302
94 117 -1 181 -17 272 -71 49 -29 258 -234 950 -927 l887 -889 1945 1950
c2103 2107 1977 1987 2122 2026 72 19 201 20 274 1z"/>
</g>
</svg>
