<?xml version="1.0" standalone="no"?>
<!DOCTYPE svg PUBLIC "-//W3C//DTD SVG 20010904//EN"
 "http://www.w3.org/TR/2001/REC-SVG-20010904/DTD/svg10.dtd">
<svg version="1.0" xmlns="http://www.w3.org/2000/svg"
 width="1182.000000pt" height="1182.000000pt" viewBox="0 0 1182.000000 1182.000000"
 preserveAspectRatio="xMidYMid meet">
<metadata>
Created by potrace 1.11, written by Peter Selinger 2001-2013
</metadata>
<g transform="translate(0.000000,1182.000000) scale(0.100000,-0.100000)"
fill="#000000" stroke="none">
<path d="M9659 11783 c-24 -21 -47 -42 -52 -48 -6 -9 -37 -102 -43 -130 -1 -5
-9 -35 -18 -65 -8 -30 -18 -80 -21 -110 -3 -30 -8 -73 -10 -95 -3 -22 -7 -107
-10 -190 -2 -82 -5 -157 -7 -165 -10 -39 -71 -216 -78 -225 -4 -5 -22 -48 -39
-95 -46 -121 -60 -152 -86 -180 -13 -14 -28 -44 -34 -66 -7 -28 -25 -54 -52
-79 -22 -20 -42 -35 -44 -33 -2 2 -20 48 -39 103 -20 55 -40 109 -46 120 -24
51 -43 103 -51 140 -5 22 -12 51 -15 64 -2 13 -20 48 -39 77 -19 30 -35 57
-35 60 0 8 -112 145 -155 190 -22 23 -54 57 -71 77 -16 19 -56 47 -87 62 -32
14 -61 33 -64 41 -3 9 -38 37 -77 62 -65 44 -171 80 -250 87 -37 3 -177 -33
-199 -52 -84 -72 -109 -129 -122 -278 -8 -97 -13 -121 -35 -168 -18 -41 -21
-61 -17 -137 2 -61 -1 -102 -10 -127 -32 -87 -39 -131 -36 -233 6 -167 3 -223
-11 -240 -11 -12 -27 -47 -31 -70 -12 -63 -19 -117 -19 -165 -1 -33 -5 -66
-10 -74 -5 -7 -10 -43 -12 -80 -8 -139 -23 -219 -50 -266 -12 -22 -24 -58 -25
-80 -2 -22 -8 -47 -14 -55 -7 -8 -17 -31 -24 -50 -17 -47 -41 -91 -63 -114
-12 -13 -18 -35 -18 -68 0 -55 -40 -190 -64 -213 -9 -9 -33 -70 -53 -136 -20
-65 -42 -119 -48 -119 -6 0 -27 -8 -47 -19 -33 -16 -43 -17 -103 -6 -63 12
-127 13 -170 2 -11 -3 -25 -6 -32 -6 -7 -1 -25 -14 -41 -29 -21 -21 -34 -26
-48 -21 -38 15 -80 8 -208 -36 -72 -25 -144 -52 -161 -59 -16 -8 -59 -24 -95
-37 -36 -13 -76 -34 -90 -46 -14 -13 -38 -23 -55 -24 -16 0 -39 -2 -50 -5 -11
-2 -48 -6 -82 -10 -52 -5 -66 -2 -90 15 -22 16 -41 20 -95 18 -37 -2 -70 -5
-73 -9 -4 -3 -9 -30 -12 -59 -6 -64 -24 -81 -111 -104 -53 -15 -70 -16 -103
-6 -39 12 -41 11 -70 -21 -16 -18 -29 -36 -29 -39 0 -3 -8 -15 -18 -27 l-19
-21 -35 26 c-36 25 -37 25 -61 7 -14 -11 -33 -31 -44 -46 -23 -35 -53 -36 -82
-2 -18 20 -25 23 -37 14 -8 -7 -14 -18 -14 -24 0 -19 -41 -54 -72 -61 -23 -6
-29 -2 -43 24 -8 17 -19 31 -23 31 -15 -1 -57 -82 -54 -108 1 -16 -7 -38 -21
-56 -21 -25 -26 -27 -57 -19 -54 14 -67 8 -62 -32 2 -19 0 -35 -4 -36 -5 -1
-35 -2 -67 -4 -51 -2 -60 0 -73 20 -15 24 -58 47 -68 38 -3 -4 -6 -23 -6 -44
0 -48 -32 -123 -65 -152 -14 -12 -27 -33 -28 -46 -1 -13 -12 -30 -24 -38 -21
-14 -26 -14 -48 1 -36 24 -41 20 -40 -25 1 -37 -3 -44 -34 -64 -20 -13 -56
-29 -81 -36 -25 -7 -56 -21 -70 -31 -14 -9 -36 -19 -50 -22 -22 -3 -42 -7
-120 -21 -8 -2 -69 -20 -135 -40 -150 -45 -244 -70 -965 -254 -80 -20 -156
-44 -170 -53 -14 -9 -68 -28 -120 -42 -52 -13 -117 -34 -143 -45 -27 -12 -55
-21 -62 -21 -35 0 -184 -54 -221 -80 -22 -16 -54 -32 -70 -36 -16 -4 -34 -11
-40 -15 -6 -5 -37 -17 -70 -28 -78 -25 -188 -77 -244 -115 -25 -17 -46 -29
-47 -28 -14 12 -59 -20 -133 -92 -14 -14 -37 -27 -51 -30 -15 -2 -40 -11 -56
-20 -37 -18 -127 -114 -175 -187 -64 -94 -228 -288 -245 -288 -7 -1 -13 -5
-13 -11 0 -5 -7 -10 -15 -10 -18 0 -165 -144 -165 -162 0 -8 -9 -23 -19 -35
-11 -11 -22 -37 -25 -57 -3 -20 -10 -44 -15 -54 -36 -71 -41 -93 -45 -232 -3
-80 -8 -170 -10 -200 -3 -30 -8 -78 -10 -105 -6 -74 -71 -165 -143 -201 -45
-23 -53 -31 -53 -55 0 -24 -5 -29 -33 -34 l-33 -6 1 -162 c1 -149 3 -166 24
-207 36 -68 61 -98 95 -112 17 -7 49 -25 72 -40 25 -17 65 -31 110 -38 80 -13
122 -28 147 -51 18 -16 18 -19 -8 -92 l-27 -74 27 -52 c33 -63 55 -84 136
-133 58 -36 69 -39 123 -36 59 4 60 3 103 -40 30 -30 82 -62 166 -102 111 -54
146 -66 214 -75 12 -2 34 -6 50 -9 84 -16 173 -17 229 0 70 20 145 57 169 84
11 12 31 20 50 20 27 0 35 5 45 30 7 16 22 32 34 36 11 3 28 12 36 19 8 7 46
23 85 34 83 26 167 26 245 1 30 -10 80 -21 110 -25 91 -11 105 -14 143 -30 23
-10 69 -15 126 -15 69 0 105 -5 154 -23 40 -15 72 -21 88 -16 14 3 45 5 69 3
65 -4 160 -14 195 -19 52 -8 137 -15 230 -19 50 -3 104 -7 120 -10 17 -3 44
-8 60 -11 17 -3 41 -7 55 -10 14 -3 39 -7 55 -10 17 -2 55 -9 85 -15 30 -6 82
-13 115 -16 33 -2 80 -7 105 -9 25 -3 90 -7 145 -10 55 -3 111 -7 125 -10 14
-3 52 -7 85 -11 33 -3 66 -7 73 -10 8 -2 43 -7 80 -10 36 -3 79 -12 94 -20 15
-8 28 -12 28 -10 0 3 24 -6 53 -19 28 -13 75 -27 102 -30 52 -7 104 -35 124
-67 6 -10 14 -34 17 -54 l5 -35 -43 6 c-24 3 -51 8 -60 11 -26 8 -22 -4 13
-33 24 -21 29 -31 24 -53 -5 -23 0 -34 27 -59 18 -17 41 -34 51 -37 17 -5 17
-7 3 -23 -15 -16 -13 -19 21 -35 20 -9 59 -21 86 -27 65 -12 90 -29 112 -75
17 -37 17 -37 -6 -55 -13 -10 -29 -19 -35 -19 -5 0 -19 -6 -29 -14 -18 -13
-16 -15 23 -35 23 -11 49 -21 59 -21 22 -1 43 -17 65 -49 16 -23 16 -25 -8
-56 l-24 -32 31 -43 c18 -24 36 -62 41 -84 12 -51 15 -55 112 -123 l81 -57
-50 -13 c-28 -8 -57 -15 -65 -17 -8 -2 -27 -7 -42 -11 l-28 -7 0 -307 0 -306
-44 -125 c-24 -69 -46 -132 -49 -140 -63 -170 -91 -288 -151 -635 -3 -16 -10
-55 -17 -85 -6 -30 -12 -66 -14 -80 -8 -77 -16 -140 -19 -156 -2 -11 -7 -50
-12 -89 -4 -38 -8 -72 -9 -75 -1 -3 -5 -36 -9 -75 -5 -38 -10 -78 -12 -89 -2
-10 -6 -42 -8 -70 -3 -28 -10 -73 -15 -101 -5 -27 -7 -53 -5 -57 3 -4 1170 -7
2594 -7 l2590 0 -6 47 c-11 92 -33 150 -71 189 -32 31 -83 97 -83 107 0 1 27
-4 60 -13 32 -8 62 -13 65 -9 4 3 2 23 -4 44 -5 22 -12 63 -15 92 -6 47 -3 59
21 101 2 2 9 -2 18 -9 23 -19 28 -7 26 72 -3 138 -9 169 -37 212 -27 39 -28
46 -28 161 1 168 8 232 29 255 10 11 24 20 32 20 8 0 24 21 35 48 12 26 30 59
41 73 10 15 20 43 21 62 2 19 13 52 26 73 26 45 71 218 74 284 1 25 -1 57 -5
72 -4 14 -4 29 -1 33 3 3 7 11 9 18 15 72 54 164 74 177 10 7 49 98 49 116 0
8 4 22 9 32 23 46 41 95 41 113 0 11 5 29 11 41 6 11 12 41 14 67 3 25 7 62
10 81 4 19 8 89 9 155 3 110 11 213 22 275 19 107 20 207 6 545 -10 226 -10
226 -41 298 -61 140 -70 249 -27 314 24 36 41 86 62 183 3 13 9 27 14 30 14 9
37 90 44 155 6 56 13 100 16 100 1 0 3 32 5 70 3 75 6 93 18 112 4 6 7 38 7
70 -1 32 1 74 3 93 4 41 -10 94 -43 160 -4 9 -11 31 -15 50 -4 19 -18 53 -31
76 -13 22 -24 47 -24 55 0 8 -12 39 -27 69 -14 30 -27 60 -28 65 -2 6 -7 28
-13 50 -6 22 -13 53 -16 69 -3 16 -21 63 -41 104 -19 41 -35 78 -35 84 0 5
-30 53 -66 106 -65 95 -81 134 -62 159 6 7 7 16 5 20 -3 5 -7 40 -8 78 -1 39
-8 95 -15 126 -7 31 -15 67 -18 80 -6 36 -23 76 -35 83 -5 3 -12 20 -16 36 -4
17 -11 30 -16 30 -5 0 -9 5 -9 10 0 6 -11 21 -25 33 -14 12 -27 32 -30 45 -2
12 -13 35 -24 51 -12 16 -21 32 -21 35 0 21 -101 153 -155 204 -36 33 -65 63
-65 66 0 6 -39 65 -50 76 -3 3 -13 17 -23 32 -16 26 -128 108 -147 108 -5 0
-17 11 -28 24 -10 14 -38 35 -61 47 -45 23 -75 50 -153 136 -26 28 -61 60 -78
69 -16 10 -30 23 -30 29 0 7 -11 34 -25 61 -14 27 -32 72 -39 99 -19 64 -43
130 -61 165 -8 16 -12 43 -9 66 2 22 5 86 6 144 1 99 3 108 31 150 16 25 44
61 62 80 18 19 36 46 40 60 7 23 50 92 93 150 34 45 76 115 74 122 -1 4 22 31
51 60 29 29 69 80 89 114 21 33 46 68 58 79 11 10 20 23 20 29 0 10 31 75 67
141 18 33 44 149 48 211 0 6 7 21 16 35 19 30 41 84 44 107 1 9 6 29 12 43 14
33 23 79 29 148 2 33 18 87 40 135 40 90 54 152 42 185 -5 15 -3 30 8 46 8 13
24 57 34 99 10 41 21 80 25 87 14 22 21 190 11 259 -3 19 -8 114 -11 210 -6
195 -9 242 -18 256 -3 5 -8 29 -12 53 -3 24 -12 53 -20 65 -7 12 -15 42 -18
68 -5 40 -50 149 -76 183 -5 5 -28 48 -53 95 -127 239 -129 242 -248 361 -64
64 -141 132 -171 151 -47 30 -162 78 -187 78 -5 0 -28 -17 -53 -37z"/>
</g>
</svg>
